<svg viewBox="-0.5 -0.5 16 16" fill="none" xmlns="http://www.w3.org/2000/svg" id="Clapperboard-Play--Streamline-Solar-Ar" height="16" width="16"><desc>Clapperboard Play Streamline Icon: https://streamlinehq.com</desc><path d="M1.25 7.5c0 -2.94628125 0 -4.41941875 0.91529375 -5.33470625C3.0805812500000003 1.25 4.55371875 1.25 7.5 1.25c2.94625 0 4.4194375 0 5.3346875 0.91529375C13.75 3.0805812500000003 13.75 4.55371875 13.75 7.5c0 2.94625 0 4.4194375 -0.9153125 5.3346875C11.9194375 13.75 10.44625 13.75 7.5 13.75c-2.94628125 0 -4.41941875 0 -5.33470625 -0.9153125C1.25 11.9194375 1.25 10.44625 1.25 7.5Z" stroke="#000000" stroke-width="1"></path><path d="M13.4375 5h-11.875" stroke="#000000" stroke-linecap="round" stroke-width="1"></path><path d="M6.5625 1.5625 4.375 5" stroke="#000000" stroke-linecap="round" stroke-width="1"></path><path d="M10.625 1.5625 8.4375 5" stroke="#000000" stroke-linecap="round" stroke-width="1"></path><path d="M9.375 9.0625c0 -0.395875 -0.41375 -0.6628125 -1.24125 -1.19675 -0.8388125000000001 -0.5411875 -1.2582499999999999 -0.8118124999999999 -1.571 -0.613125C6.25 7.4513125 6.25 7.988375 6.25 9.0625s0 1.6111875 0.31275 1.809875c0.31275 0.19868750000000002 0.7321875 -0.0719375 1.571 -0.613125C8.96125 9.7253125 9.375 9.458375 9.375 9.0625Z" stroke="#000000" stroke-linecap="round" stroke-width="1"></path></svg>